<?xml version="1.0" encoding="UTF-8"?>
<!DOCTYPE svg PUBLIC "-//W3C//DTD SVG 1.1//EN" "http://www.w3.org/Graphics/SVG/1.1/DTD/svg11.dtd">
<svg xmlns="http://www.w3.org/2000/svg" version="1.1" width="143px" height="135px" style="shape-rendering:geometricPrecision; text-rendering:geometricPrecision; image-rendering:optimizeQuality; fill-rule:evenodd; clip-rule:evenodd" xmlns:xlink="http://www.w3.org/1999/xlink">
<g><path style="opacity:1" fill="#ea7e36" d="M 98.5,11.5 C 99.9899,13.2798 101.99,13.9465 104.5,13.5C 107.784,15.117 110.451,17.4503 112.5,20.5C 112.427,22.0269 113.094,23.0269 114.5,23.5C 115.674,24.5137 116.34,25.847 116.5,27.5C 116.415,30.6489 117.415,33.3155 119.5,35.5C 120.928,41.6762 120.594,47.6762 118.5,53.5C 116.744,54.5521 116.077,56.2188 116.5,58.5C 114.829,65.1813 110.829,69.848 104.5,72.5C 103.167,72.5 101.833,72.5 100.5,72.5C 100.232,74.099 100.566,75.4324 101.5,76.5C 106.008,84.1823 110.008,92.1823 113.5,100.5C 113.427,102.027 114.094,103.027 115.5,103.5C 118.674,108.516 121.341,113.849 123.5,119.5C 117.588,121.456 111.255,122.123 104.5,121.5C 100.323,113.808 96.6564,105.808 93.5,97.5C 93.913,94.6798 92.913,92.6798 90.5,91.5C 87.6034,86.8334 85.2701,81.8334 83.5,76.5C 83.44,75.9569 83.1067,75.6236 82.5,75.5C 81.5006,90.8189 81.1673,106.152 81.5,121.5C 76.1667,121.5 70.8333,121.5 65.5,121.5C 64.7322,115.339 64.7322,109.006 65.5,102.5C 66.4936,93.3483 66.8269,84.015 66.5,74.5C 60.642,74.1778 54.9753,74.5111 49.5,75.5C 44.7312,91.1441 39.3979,106.477 33.5,121.5C 28.1667,121.5 22.8333,121.5 17.5,121.5C 17.5,120.5 17.5,119.5 17.5,118.5C 18.2163,115.402 19.2163,112.402 20.5,109.5C 22.8337,107.824 23.8337,105.491 23.5,102.5C 23.4326,101.041 23.7659,99.7079 24.5,98.5C 26.8337,96.8243 27.8337,94.491 27.5,91.5C 28.2702,87.2974 29.6035,83.2974 31.5,79.5C 34.4312,76.9867 35.7645,73.6533 35.5,69.5C 35.5,69.1667 35.5,68.8333 35.5,68.5C 37.8337,66.8243 38.8337,64.491 38.5,61.5C 38.4326,60.0413 38.7659,58.7079 39.5,57.5C 41.8337,55.8243 42.8337,53.491 42.5,50.5C 43.5715,45.2855 45.2382,40.2855 47.5,35.5C 49.2132,34.3646 49.8799,32.698 49.5,30.5C 51.6896,23.953 54.0229,17.453 56.5,11C 70.6728,10.1727 84.6728,10.3393 98.5,11.5 Z M 88.5,26.5 C 91.2372,26.4013 93.9039,26.7347 96.5,27.5C 102.595,34.5046 104.095,42.5046 101,51.5C 99.6954,54.9614 97.5287,57.628 94.5,59.5C 90.5,59.5 86.5,59.5 82.5,59.5C 82.5,48.8333 82.5,38.1667 82.5,27.5C 84.7354,27.7947 86.7354,27.4614 88.5,26.5 Z M 62.5,36.5 C 63.1667,36.5 63.8333,36.5 64.5,36.5C 64.2627,37.791 64.596,38.791 65.5,39.5C 65.5,46.1667 65.5,52.8333 65.5,59.5C 61.6707,60.069 58.3373,59.4023 55.5,57.5C 58.4054,50.7839 60.7387,43.7839 62.5,36.5 Z"/></g>
<g><path style="opacity:1" fill="#da976e" d="M 98.5,11.5 C 100.786,11.595 102.786,12.2616 104.5,13.5C 101.99,13.9465 99.9899,13.2798 98.5,11.5 Z"/></g>
<g><path style="opacity:0.506" fill="#dab6a0" d="M 112.5,20.5 C 113.906,20.9731 114.573,21.9731 114.5,23.5C 113.094,23.0269 112.427,22.0269 112.5,20.5 Z"/></g>
<g><path style="opacity:1" fill="#d89971" d="M 116.5,27.5 C 118.267,29.7916 119.267,32.4582 119.5,35.5C 117.415,33.3155 116.415,30.6489 116.5,27.5 Z"/></g>
<g><path style="opacity:0.953" fill="#d5a282" d="M 49.5,30.5 C 49.8799,32.698 49.2132,34.3646 47.5,35.5C 47.7959,33.597 48.4625,31.9303 49.5,30.5 Z"/></g>
<g><path style="opacity:0.02" fill="#e5ded9" d="M 64.5,36.5 C 63.8333,36.5 63.1667,36.5 62.5,36.5C 63.1667,33.8333 63.8333,33.8333 64.5,36.5 Z"/></g>
<g><path style="opacity:0.964" fill="#d57737" d="M 96.5,27.5 C 93.9039,26.7347 91.2372,26.4013 88.5,26.5C 86.1667,26.5 83.8333,26.5 81.5,26.5C 81.5,37.8333 81.5,49.1667 81.5,60.5C 80.5049,48.6783 80.1716,36.6783 80.5,24.5C 85.5111,24.3341 90.5111,24.5007 95.5,25C 96.2524,25.6708 96.5858,26.5041 96.5,27.5 Z"/></g>
<g><path style="opacity:0.49" fill="#cdaf9c" d="M 65.5,39.5 C 66.4912,46.3134 66.8245,53.3134 66.5,60.5C 62.5,60.5 58.5,60.5 54.5,60.5C 54.2627,59.209 54.596,58.209 55.5,57.5C 58.3373,59.4023 61.6707,60.069 65.5,59.5C 65.5,52.8333 65.5,46.1667 65.5,39.5 Z"/></g>
<g><path style="opacity:1" fill="#d69771" d="M 42.5,50.5 C 42.8337,53.491 41.8337,55.8243 39.5,57.5C 39.9348,54.8427 40.9348,52.5093 42.5,50.5 Z"/></g>
<g><path style="opacity:0.12" fill="#e7e0dd" d="M 88.5,26.5 C 86.7354,27.4614 84.7354,27.7947 82.5,27.5C 82.5,38.1667 82.5,48.8333 82.5,59.5C 86.5,59.5 90.5,59.5 94.5,59.5C 90.3656,60.4849 86.0323,60.8182 81.5,60.5C 81.5,49.1667 81.5,37.8333 81.5,26.5C 83.8333,26.5 86.1667,26.5 88.5,26.5 Z"/></g>
<g><path style="opacity:1" fill="#da956a" d="M 118.5,53.5 C 118.598,55.5529 117.931,57.2196 116.5,58.5C 116.077,56.2188 116.744,54.5521 118.5,53.5 Z"/></g>
<g><path style="opacity:1" fill="#d79770" d="M 38.5,61.5 C 38.8337,64.491 37.8337,66.8243 35.5,68.5C 35.9348,65.8427 36.9348,63.5093 38.5,61.5 Z"/></g>
<g><path style="opacity:1" fill="#d79c77" d="M 104.5,72.5 C 102.771,73.2362 101.771,74.5695 101.5,76.5C 100.566,75.4324 100.232,74.099 100.5,72.5C 101.833,72.5 103.167,72.5 104.5,72.5 Z"/></g>
<g><path style="opacity:0.309" fill="#cfb3a1" d="M 49.5,75.5 C 54.9753,74.5111 60.642,74.1778 66.5,74.5C 66.8269,84.015 66.4936,93.3483 65.5,102.5C 65.5,93.5 65.5,84.5 65.5,75.5C 60.1667,75.5 54.8333,75.5 49.5,75.5 Z"/></g>
<g><path style="opacity:1" fill="#da8751" d="M 35.5,69.5 C 35.7645,73.6533 34.4312,76.9867 31.5,79.5C 32.3208,75.8733 33.6541,72.54 35.5,69.5 Z"/></g>
<g><path style="opacity:0.148" fill="#decec3" d="M 83.5,76.5 C 82.5038,91.6576 82.1705,106.991 82.5,122.5C 76.642,122.822 70.9753,122.489 65.5,121.5C 70.8333,121.5 76.1667,121.5 81.5,121.5C 81.1673,106.152 81.5006,90.8189 82.5,75.5C 83.1067,75.6236 83.44,75.9569 83.5,76.5 Z"/></g>
<g><path style="opacity:1" fill="#df9a70" d="M 90.5,91.5 C 92.913,92.6798 93.913,94.6798 93.5,97.5C 91.9925,95.8185 90.9925,93.8185 90.5,91.5 Z"/></g>
<g><path style="opacity:1" fill="#d89e79" d="M 27.5,91.5 C 27.8337,94.491 26.8337,96.8243 24.5,98.5C 24.9348,95.8427 25.9348,93.5093 27.5,91.5 Z"/></g>
<g><path style="opacity:0.369" fill="#d9bba9" d="M 113.5,100.5 C 114.906,100.973 115.573,101.973 115.5,103.5C 114.094,103.027 113.427,102.027 113.5,100.5 Z"/></g>
<g><path style="opacity:1" fill="#d99d78" d="M 23.5,102.5 C 23.8337,105.491 22.8337,107.824 20.5,109.5C 20.9348,106.843 21.9348,104.509 23.5,102.5 Z"/></g>
<g><path style="opacity:0.894" fill="#bc7242" d="M 17.5,118.5 C 17.5,119.5 17.5,120.5 17.5,121.5C 22.8333,121.5 28.1667,121.5 33.5,121.5C 27.6812,122.653 21.6812,122.819 15.5,122C 16.0848,120.698 16.7515,119.531 17.5,118.5 Z"/></g>
<g><path style="opacity:0.78" fill="#c17e51" d="M 123.5,119.5 C 124.267,120.172 124.934,121.005 125.5,122C 118.321,122.821 111.321,122.655 104.5,121.5C 111.255,122.123 117.588,121.456 123.5,119.5 Z"/></g>
</svg>